<svg width="48" height="48" viewBox="0 0 48 48" fill="none" xmlns="http://www.w3.org/2000/svg">
<path d="M45.3405 13.3132H40.7565V6.98808C40.7565 6.92322 40.7468 6.85872 40.7277 6.79669H43.5817C44.9152 6.79669 46 5.72076 46 4.39818C45.9999 3.07594 44.9151 2.00001 43.5816 2.00001H35.2604C34.7487 1.99885 34.2501 2.15987 33.8372 2.4596L8.75996 20.5678C8.68993 20.6184 8.63062 20.6821 8.58543 20.7554C8.54024 20.8287 8.51006 20.9101 8.49661 20.9949C8.48315 21.0798 8.48669 21.1665 8.50702 21.25C8.52735 21.3335 8.56407 21.4122 8.61509 21.4816C8.66605 21.5511 8.73031 21.6099 8.8042 21.6547C8.87809 21.6995 8.96016 21.7295 9.04573 21.7428C9.13129 21.7562 9.21866 21.7526 9.30286 21.7325C9.38705 21.7123 9.46641 21.6759 9.53641 21.6253L34.6136 3.51697C34.8013 3.38086 35.0279 3.3077 35.2604 3.30815H43.5819C44.1878 3.30815 44.6809 3.79696 44.6809 4.39818C44.6809 4.9994 44.1878 5.48821 43.5819 5.48821H35.8327C35.6932 5.48821 35.5572 5.53221 35.4446 5.61368L5.06412 27.5517C4.87686 27.6877 4.65075 27.7608 4.41868 27.7605C4.06231 27.7605 3.73807 27.597 3.52882 27.312C3.17209 26.826 3.2804 26.1429 3.77022 25.789L7.10474 23.3814C7.17477 23.3309 7.23407 23.2671 7.27925 23.1939C7.32443 23.1206 7.35461 23.0392 7.36806 22.9543C7.38152 22.8695 7.37798 22.7828 7.35766 22.6993C7.33733 22.6158 7.30062 22.5371 7.24962 22.4677C7.19866 22.3982 7.1344 22.3394 7.0605 22.2946C6.98661 22.2497 6.90454 22.2198 6.81898 22.2065C6.73342 22.1931 6.64604 22.1966 6.56185 22.2168C6.47766 22.2369 6.39829 22.2734 6.3283 22.324L2.99395 24.7315C1.91606 25.5099 1.67752 27.0129 2.46245 28.082C2.91596 28.6998 3.64744 29.0686 4.41877 29.0686C4.92998 29.0695 5.42812 28.9085 5.84065 28.6091L6.8747 27.8625V35.1501H4.18153C3.18882 35.1501 2.38118 35.951 2.38118 36.9356C2.38118 37.9202 3.18873 38.7212 4.18153 38.7212H4.3602V45.3461C4.3602 45.7073 4.65566 46 5.01993 46H45.3405C45.4271 46 45.5129 45.9831 45.5929 45.9502C45.6729 45.9174 45.7456 45.8692 45.8068 45.8085C45.868 45.7477 45.9166 45.6756 45.9497 45.5963C45.9829 45.5169 45.9999 45.4319 45.9999 45.346V30.9459C46.0009 30.8594 45.9846 30.7735 45.9519 30.6933C45.9192 30.613 45.8708 30.54 45.8094 30.4785C45.7481 30.417 45.6751 30.3681 45.5945 30.3348C45.514 30.3014 45.4277 30.2842 45.3404 30.2842C45.2532 30.2842 45.1668 30.3014 45.0863 30.3348C45.0057 30.3681 44.9327 30.417 44.8714 30.4785C44.81 30.54 44.7616 30.613 44.7289 30.6933C44.6962 30.7735 44.6799 30.8594 44.6809 30.9459V44.6919H5.67923V38.7213H15.1001C15.1867 38.7213 15.2724 38.7044 15.3524 38.6715C15.4324 38.6386 15.5051 38.5904 15.5663 38.5297C15.6275 38.469 15.6761 38.3969 15.7092 38.3175C15.7424 38.2382 15.7594 38.1532 15.7594 38.0673V31.4424H25.1802C25.5445 31.4424 25.8396 31.1493 25.8396 30.7881V24.1632H35.2604C35.3469 24.1632 35.4327 24.1463 35.5127 24.1134C35.5927 24.0806 35.6654 24.0324 35.7266 23.9717C35.7878 23.911 35.8364 23.8389 35.8695 23.7596C35.9027 23.6802 35.9197 23.5952 35.9197 23.5093V16.8844H44.6809V28.3295C44.6829 28.5017 44.7532 28.6662 44.8767 28.7872C45.0002 28.9083 45.1668 28.9762 45.3404 28.9762C45.514 28.9762 45.6806 28.9083 45.8041 28.7872C45.9276 28.6662 45.9979 28.5017 45.9999 28.3295V13.9671C45.9999 13.8813 45.9829 13.7962 45.9497 13.7169C45.9166 13.6375 45.868 13.5654 45.8068 13.5047C45.7456 13.444 45.6729 13.3958 45.5929 13.3629C45.5129 13.3301 45.4271 13.3132 45.3405 13.3132V13.3132ZM14.4405 37.413H4.18144C3.91613 37.413 3.70021 37.1988 3.70021 36.9356C3.70021 36.6723 3.91613 36.4583 4.18153 36.4583H14.4404L14.4405 37.413ZM14.4405 35.1501H8.19364V26.9098L17.7289 20.0245V27.8713H14.2617C13.269 27.8713 12.4614 28.6723 12.4614 29.6565C12.4614 30.6411 13.2689 31.4421 14.2617 31.4421H14.4404L14.4405 35.1501ZM24.5205 30.1338H14.2617C13.9963 30.1338 13.7804 29.92 13.7804 29.6568C13.7804 29.3937 13.9963 29.1795 14.2617 29.1795H24.5205V30.1338ZM24.5205 27.8712H19.0479V19.0721L28.5828 12.1866V20.5921H24.3419C23.3492 20.5921 22.5415 21.393 22.5415 22.3776C22.5415 23.3622 23.3491 24.1631 24.3419 24.1631H24.5205V27.8712ZM34.6007 22.855H24.3419C24.0765 22.855 23.8606 22.6408 23.8606 22.3776C23.8606 22.1144 24.0765 21.9002 24.3419 21.9002H34.6007V22.855ZM34.6007 20.5924H29.9018V11.2342L36.0473 6.79669H39.4661C39.447 6.85872 39.4373 6.92322 39.4374 6.98808V13.3132H34.422C33.4293 13.3132 32.6217 14.1142 32.6217 15.0988C32.6217 16.0834 33.4292 16.8843 34.422 16.8843H34.6007V20.5924ZM34.422 15.5762C34.1566 15.5762 33.9407 15.3619 33.9407 15.0988C33.9407 14.8356 34.1566 14.6214 34.422 14.6214H44.6809V15.5762H34.422Z" fill="#0B6D7A"/>
</svg>
