<svg width="48" height="48" viewBox="0 0 48 48" fill="none" xmlns="http://www.w3.org/2000/svg">
<path d="M10.0667 38.6666H45.2667C45.7067 38.6666 46 38.3733 46 37.9333V2.7333C46 2.2933 45.7067 2 45.2667 2H10.0666C9.62659 2 9.33329 2.2933 9.33329 2.7333V37.9332C9.33329 38.3732 9.62668 38.6666 10.0667 38.6666ZM10.8 26.9333H18.1333C17.7666 30.8199 14.6866 33.8999 10.8 34.2665V26.9333ZM10.8 3.46669H22.5333V7.86668H21.8C21.36 7.86668 21.0667 8.15999 21.0667 8.59999C21.0667 9.03999 21.36 9.33329 21.8 9.33329H24.7333C25.1733 9.33329 25.4666 9.03999 25.4666 8.59999C25.4666 8.15999 25.1733 7.86668 24.7333 7.86668H24V3.46669H30.6V11.5334C30.6 11.9734 30.8933 12.2667 31.3333 12.2667H34.2666V13C34.2666 13.44 34.5599 13.7333 34.9999 13.7333C35.4399 13.7333 35.7332 13.44 35.7332 13V10.0667C35.7332 9.62668 35.4399 9.33338 34.9999 9.33338C34.5599 9.33338 34.2666 9.62668 34.2666 10.0667V10.8H32.0666V3.46669H44.5333V10.8H41.6V10.0667C41.6 9.62668 41.3067 9.33338 40.8667 9.33338C40.4267 9.33338 40.1334 9.62668 40.1334 10.0667V13C40.1334 13.44 40.4267 13.7333 40.8667 13.7333C41.3067 13.7333 41.6 13.44 41.6 13V12.2667H44.5333V24H40.1333V23.2667C40.1333 22.8267 39.84 22.5334 39.4 22.5334C38.96 22.5334 38.6667 22.8267 38.6667 23.2667V26.2C38.6667 26.64 38.96 26.9333 39.4 26.9333C39.84 26.9333 40.1333 26.64 40.1333 26.2V25.4667H44.5333V37.1999H28.4V25.4667H32.8V26.2C32.8 26.64 33.0933 26.9333 33.5333 26.9333C33.9733 26.9333 34.2666 26.64 34.2666 26.2V23.2667C34.2666 22.8267 33.9733 22.5334 33.5333 22.5334C33.0933 22.5334 32.8 22.8267 32.8 23.2667V24H27.6667C27.2267 24 26.9334 24.2933 26.9334 24.7333V37.1999H10.8V35.7057C15.7349 35.3334 19.6 31.2331 19.6 26.2C19.6 25.76 19.3067 25.4667 18.8667 25.4667H10.8V21.0667H23.2667C23.7067 21.0667 24 20.7734 24 20.3334V15.2H24.7333C25.1733 15.2 25.4666 14.9067 25.4666 14.4667C25.4666 14.0267 25.1733 13.7334 24.7333 13.7334H21.8C21.36 13.7334 21.0667 14.0267 21.0667 14.4667C21.0667 14.9067 21.36 15.2 21.8 15.2H22.5333V19.6H10.8V3.46669ZM7.64668 38.4466C7.93998 38.1533 7.93998 37.7133 7.64668 37.4199C7.35337 37.1266 6.91337 37.1266 6.61998 37.4199L5.66668 38.3732V4.4933L6.61998 5.44669C6.76668 5.59338 6.91329 5.66669 7.13329 5.66669C7.35329 5.66669 7.49998 5.59338 7.64659 5.44669C7.9399 5.15338 7.9399 4.71339 7.64659 4.42L5.57214 2.34547C5.45226 2.12985 5.22539 2 4.93328 2C4.64118 2 4.41439 2.12985 4.29443 2.34547L2.21998 4.42C1.92667 4.7133 1.92667 5.1533 2.21998 5.44669C2.51328 5.74008 2.95328 5.73999 3.24667 5.44669L4.19998 4.4933V38.3732L3.24667 37.4199C2.95337 37.1266 2.51337 37.1266 2.21998 37.4199C1.92667 37.7132 1.92667 38.1532 2.21998 38.4466L4.29451 40.5212C4.41439 40.7368 4.64118 40.8666 4.93337 40.8666C5.22547 40.8666 5.45226 40.7368 5.57214 40.5212L7.64668 38.4466ZM46 43.0672V43.0658C45.9998 42.7741 45.8701 42.5476 45.6545 42.4277L43.58 40.3531C43.2867 40.0598 42.8467 40.0598 42.5533 40.3531C42.26 40.6465 42.26 41.0864 42.5533 41.3798L43.5066 42.3331H9.62668L10.58 41.3799C10.8733 41.0866 10.8733 40.6466 10.58 40.3532C10.2867 40.0599 9.84668 40.0599 9.55329 40.3532L7.47875 42.4278C7.26314 42.5476 7.13329 42.7744 7.13329 43.0666C7.13329 43.3588 7.26314 43.5855 7.47875 43.7055L9.55329 45.78C9.69998 45.9267 9.84659 46 10.0666 46C10.2866 46 10.4333 45.9267 10.5799 45.78C10.8732 45.4867 10.8732 45.0467 10.5799 44.7533L9.62668 43.7999H43.5067L42.5534 44.7532C42.2601 45.0465 42.2601 45.4865 42.5534 45.7799C42.7001 45.9266 42.8467 45.9999 43.0667 45.9999C43.2867 45.9999 43.4334 45.9266 43.58 45.7799L45.6545 43.7054C45.87 43.5856 45.9997 43.3591 46 43.0672Z" fill="#0B6D7A"/>
</svg>
