<svg width="48" height="48" viewBox="0 0 48 48" fill="none" xmlns="http://www.w3.org/2000/svg">
<g clip-path="url(#clip0_1802_2021)">
<path d="M19.9578 10.4875H12.8448C12.1985 10.4875 11.673 11.0131 11.673 11.6594V23.2782C11.673 23.9242 12.1985 24.4501 12.8448 24.4501H19.9578C20.6041 24.4501 21.1296 23.9242 21.1296 23.2782V11.6594C21.1296 11.0131 20.6041 10.4875 19.9578 10.4875ZM15.698 23.0438H13.0792V20.1683H15.698V23.0438ZM15.698 18.7621H13.0792V16.1752H15.698V18.7621ZM15.698 14.7689H13.0792V11.8938H15.698V14.7689ZM19.7234 23.0438H17.1042V20.1683H19.7234V23.0438ZM19.7234 18.7621H17.1042V16.1752H19.7234V18.7621ZM19.7234 14.7689H17.1042V11.8938H19.7234V14.7689Z" fill="#0B6D7A"/>
<path d="M29.388 38.5591C28.9995 38.5591 28.6849 38.874 28.6849 39.2622V40.9504C28.6849 41.3386 28.9995 41.6536 29.388 41.6536C29.7766 41.6536 30.0911 41.3386 30.0911 40.9504V39.2622C30.0911 38.874 29.7766 38.5591 29.388 38.5591Z" fill="#0B6D7A"/>
<path d="M47.9935 31.4583C47.9609 31.2114 47.8346 30.9913 47.6379 30.839L32.7416 19.3132C32.4112 19.058 32.0165 18.9229 31.5997 18.9229C31.1826 18.9229 30.7878 19.058 30.4571 19.3136L28.2042 21.0568V19.0375C28.2042 18.6489 27.8896 18.3344 27.5011 18.3344C27.1125 18.3344 26.798 18.6489 26.798 19.0375V22.1448L15.5619 30.8386C15.3663 30.9895 15.2363 31.2169 15.2056 31.4612C15.1737 31.7084 15.24 31.9537 15.392 32.1519L16.532 33.6346C16.7111 33.8665 16.9813 33.9994 17.2739 33.9994C17.4797 33.9994 17.683 33.9302 17.8463 33.8038L31.5997 23.1625L41.9953 31.2059V45.8558H36.3323V44.5375C36.3323 44.1489 36.0177 43.8344 35.6291 43.8344C35.2406 43.8344 34.926 44.1489 34.926 44.5375V45.8558H28.2723V35.0841H34.926V41.2328C34.926 41.6213 35.2406 41.9359 35.6291 41.9359C36.0177 41.9359 36.3323 41.6213 36.3323 41.2328V34.8497C36.3323 34.2037 35.8064 33.6779 35.1604 33.6779H28.0383C27.392 33.6779 26.8661 34.2037 26.8661 34.8497V45.8558H21.5231V43.938C21.5231 43.2916 20.9976 42.7661 20.3512 42.7661H19.6781C19.7341 42.4863 19.7645 42.1974 19.7645 41.9015C19.7645 39.468 17.7844 37.4883 15.3509 37.4883C14.03 37.4883 12.7941 38.0944 11.9675 39.0773C11.6548 38.9784 11.3223 38.9246 10.9773 38.9246C10.7239 38.9246 10.4748 38.9528 10.2328 39.0092C9.46703 37.6974 8.03808 36.8536 6.4934 36.8536C6.32897 36.8536 6.16637 36.8639 6.00597 36.8826V13.3462L16.402 5.302L26.7983 13.3462V15.7559C26.7983 16.1444 27.1129 16.459 27.5015 16.459C27.8896 16.459 28.2046 16.1444 28.2046 15.7559V14.4342L30.1558 15.9437C30.3187 16.0701 30.522 16.1393 30.7278 16.1393C31.0211 16.1393 31.2917 16.006 31.4701 15.7738C31.4726 15.7705 31.4752 15.7668 31.4778 15.7635L32.5698 14.2885L32.5768 14.2797C32.6489 14.1892 32.8404 13.9493 32.7958 13.5981C32.7632 13.3502 32.6365 13.1301 32.4402 12.9789L17.5442 1.45312C17.2139 1.19788 16.8191 1.06274 16.402 1.06274C15.9849 1.06274 15.5901 1.19788 15.2594 1.45349L11.1695 4.61792V3.73169C11.7225 3.63794 12.1451 3.15674 12.1451 2.57776V1.17188C12.1451 0.525513 11.6193 0 10.9733 0H5.27538C4.62939 0 4.10351 0.525513 4.10351 1.17188V2.57739C4.10351 3.15674 4.52612 3.63757 5.07909 3.73169V9.33032L0.365228 12.9778C0.168939 13.1287 0.0389338 13.3564 0.00817212 13.6C-0.0240544 13.8475 0.0418635 14.0929 0.194207 14.2914L1.33422 15.7742C1.51293 16.0063 1.7832 16.1393 2.07617 16.1393C2.28198 16.1393 2.48486 16.0701 2.64892 15.9437L4.59972 14.4342V37.296C3.48351 37.8453 2.62402 38.8634 2.30468 40.1052C1.2445 40.5139 0.516107 41.5437 0.516107 42.7126C0.516107 42.8416 0.525262 42.9683 0.542108 43.0928C0.319085 43.3063 0.179925 43.6058 0.179925 43.938V46.0906C0.179925 46.7366 0.705438 47.2625 1.3518 47.2625H45.4396C45.8281 47.2625 46.1427 46.9475 46.1427 46.5593C46.1427 46.1708 45.8281 45.8562 45.4396 45.8562H43.4016V32.2939L45.3531 33.8038C45.5161 33.9298 45.7193 33.9994 45.9252 33.9994C46.2185 33.9994 46.4891 33.8661 46.6675 33.6335C46.67 33.6302 46.6726 33.627 46.6752 33.6237L47.7676 32.1482L47.7749 32.139C47.8467 32.049 48.0378 31.8091 47.9935 31.4583ZM15.3509 38.8945C17.0091 38.8945 18.3583 40.2437 18.3583 41.9015C18.3583 42.2021 18.3129 42.4922 18.2305 42.7661H14.2197C14.2501 42.5874 14.267 42.4036 14.267 42.2161C14.267 41.2621 13.8586 40.4022 13.2086 39.8002C13.7645 39.2358 14.5336 38.8945 15.3509 38.8945ZM5.50976 1.40625H10.7389V2.34302H5.50976V1.40625ZM9.7633 3.74927V5.70593L6.48534 8.24231V3.74927H9.7633ZM2.16149 14.543L1.59423 13.8051L16.1196 2.56567C16.2028 2.50159 16.2976 2.46899 16.402 2.46899C16.5063 2.46899 16.6012 2.50159 16.684 2.56531L31.1896 13.7893L30.6359 14.5375L16.8323 3.85693C16.5788 3.66101 16.2251 3.66101 15.9717 3.85693L2.16149 14.543ZM20.1168 45.8562H1.58617V44.1724H8.06298C8.45116 44.1724 8.76611 43.8578 8.76611 43.4692C8.76611 43.0807 8.45116 42.7661 8.06298 42.7661H1.92419C1.92346 42.7482 1.92236 42.7306 1.92236 42.7126C1.92236 42.0494 2.39367 41.4763 3.04369 41.3503C3.33776 41.2932 3.56335 41.0563 3.60583 40.76C3.81091 39.3351 5.05236 38.2603 6.4934 38.2603C7.69018 38.2603 8.78442 39.0114 9.21618 40.129C9.28649 40.3114 9.42931 40.4561 9.61095 40.5289C9.79259 40.6014 9.99584 40.5948 10.1727 40.5114C10.4254 40.392 10.6964 40.3312 10.9773 40.3312C12.0159 40.3312 12.8607 41.1768 12.8607 42.2164C12.8607 42.408 12.8307 42.5922 12.7772 42.7661H11.438C11.0494 42.7661 10.7349 43.0811 10.7349 43.4692C10.7349 43.8578 11.0494 44.1724 11.438 44.1724H20.1168V45.8562ZM45.8336 32.3976L32.03 21.7174C31.7766 21.5211 31.4228 21.5211 31.1694 21.7174L17.3589 32.4031L16.7916 31.6652L31.3174 20.4261C31.4005 20.3617 31.4954 20.3291 31.5997 20.3291C31.7037 20.3291 31.7989 20.3617 31.8817 20.4258L46.3873 31.6494L45.8336 32.3976Z" fill="#0B6D7A"/>
</g>
<defs>
<clipPath id="clip0_1802_2021">
<rect width="48" height="48" fill="white"/>
</clipPath>
</defs>
</svg>
