<svg width="93" height="36" viewBox="0 0 93 36" fill="none" xmlns="http://www.w3.org/2000/svg">
<g id="logo_new 1" clip-path="url(#clip0_709_2067)">
<g id="Group">
<path id="Vector" d="M12.504 2.51059V8.11457L16.7313 9.23537V23.8057H20.2466V0.448318L12.504 2.51059ZM8.27676 2.51059L7.6538 2.33126V23.8057H8.27676V2.51059ZM6.18537 1.9726V23.8506H6.89734V2.19676L6.18537 1.9726ZM3.33753 1.21046V23.8057H4.04949V1.38979L3.33753 1.21046ZM1.91361 0.851805V23.8506H2.62557V1.03113L1.91361 0.851805ZM0.53418 0.448318V23.8057H1.15715V0.627646L0.53418 0.448318ZM4.76145 1.56912V23.8057H5.47341V1.74844L4.76145 1.56912Z" fill="#90AFB6"/>
<path id="Vector_2" d="M77.4706 13.9427H80.1849V15.0187H80.2294C80.4519 14.6152 81.0749 13.6289 82.9437 13.6289C83.8337 13.6289 84.9906 13.9427 85.7471 15.3773C86.3701 14.391 87.349 13.6289 88.8619 13.6289C89.5294 13.6289 90.6418 13.7634 91.4428 14.6152C92.3327 15.6015 92.5107 16.2291 92.5107 18.4259V23.8057H89.5739V18.6052C89.5739 17.7983 89.5739 16.4085 88.061 16.4085C86.4591 16.4085 86.4591 17.8879 86.4591 18.4707V23.8506H83.5222V18.5156C83.5222 18.0224 83.5222 16.4533 82.0538 16.4533C80.4074 16.4533 80.4074 18.0672 80.4074 18.6501V23.8506H77.4706V13.9427ZM0.578677 36.0448H1.51313V34.2964C1.73562 34.4309 2.0471 34.4757 2.35858 34.4757C3.51552 34.4757 4.31648 33.6239 4.31648 32.4583C4.31648 31.3823 3.64901 30.5753 2.62557 30.5753C2.13609 30.5753 1.73562 30.7547 1.46863 31.0237V30.665H0.53418V36.0448H0.578677ZM2.35858 31.472C2.98155 31.472 3.33753 31.9203 3.33753 32.5031C3.33753 33.1308 2.98155 33.5791 2.31408 33.5791C2.0026 33.5791 1.78011 33.5342 1.55762 33.3549V31.8755C1.78011 31.6065 2.0471 31.472 2.35858 31.472ZM5.8294 34.3861L7.5648 32.0548V34.3861H8.49925V30.665H7.5648L5.8294 32.9963V30.665H4.89495V34.3861H5.8294ZM12.1926 33.3549C11.9701 33.5342 11.6141 33.7136 11.1691 33.7136C10.5906 33.7136 10.1457 33.3998 10.0567 32.8618H12.7265C12.771 32.7273 12.771 32.5928 12.771 32.3686C12.771 31.3375 11.9701 30.665 11.0356 30.665C9.83418 30.665 9.07772 31.5168 9.07772 32.5928C9.07772 33.7584 9.87868 34.5205 11.0801 34.5205C11.6141 34.5205 12.1036 34.3861 12.504 34.0722L12.1926 33.3549ZM10.9911 31.3823C11.5251 31.3823 11.8366 31.741 11.8366 32.1893H10.0122C10.1012 31.6961 10.4126 31.3823 10.9911 31.3823ZM15.5744 34.3861H16.5088V30.665H13.7055L13.661 31.8306C13.572 33.2653 13.127 33.5791 12.8155 33.5342L12.9045 34.4757C13.8835 34.4757 14.3729 34.0722 14.5509 32.0548L14.5954 31.6513H15.5744V34.3861ZM16.9538 31.6065H18.1552V34.3861H19.0897V31.6065H20.2911V30.665H16.9538V31.6065ZM20.3801 32.5479C20.3801 33.6687 21.1811 34.4757 22.3825 34.4757C23.5839 34.4757 24.3849 33.6239 24.3849 32.5479C24.3849 31.4271 23.5839 30.6202 22.3825 30.6202C21.1366 30.5753 20.3801 31.4271 20.3801 32.5479ZM21.3591 32.5479C21.3591 31.9203 21.804 31.472 22.338 31.472C22.9165 31.472 23.3615 31.9203 23.3615 32.5479C23.3615 33.1756 22.9165 33.6239 22.338 33.6239C21.804 33.5791 21.3591 33.1308 21.3591 32.5479ZM24.9634 36.0448H25.8978V34.2964C26.1203 34.4309 26.4318 34.4757 26.7433 34.4757C27.9002 34.4757 28.7012 33.6239 28.7012 32.4583C28.7012 31.3823 28.0337 30.5753 27.0103 30.5753C26.5208 30.5753 26.1203 30.7547 25.8533 31.0237V30.665H24.9189V36.0448H24.9634ZM26.7433 31.472C27.3662 31.472 27.7222 31.9203 27.7222 32.5031C27.7222 33.1308 27.3662 33.5791 26.6988 33.5791C26.3873 33.5791 26.1648 33.5342 25.9423 33.3549V31.8755C26.1203 31.6065 26.4318 31.472 26.7433 31.472ZM33.5069 34.3861H34.4414V30.665H33.5069V32.0548H31.905V30.665H30.9705V34.3861H31.905V32.9514H33.5069V34.3861ZM35.0198 32.5479C35.0198 33.6687 35.8208 34.4757 37.0222 34.4757C38.2237 34.4757 39.0246 33.6239 39.0246 32.5479C39.0246 31.4271 38.2237 30.6202 37.0222 30.6202C35.8208 30.5753 35.0198 31.4271 35.0198 32.5479ZM36.0433 32.5479C36.0433 31.9203 36.4882 31.472 37.0222 31.472C37.6007 31.472 38.0457 31.9203 38.0457 32.5479C38.0457 33.1756 37.6007 33.6239 37.0222 33.6239C36.4882 33.5791 36.0433 33.1308 36.0433 32.5479ZM39.6031 34.3861C39.9591 34.3861 40.6265 34.4309 41.0715 34.4309C42.2729 34.4309 42.8069 34.0274 42.8069 33.3101C42.8069 32.8618 42.5399 32.5928 42.006 32.4583C42.3619 32.4135 42.6734 32.0996 42.6734 31.6513C42.6734 30.9788 42.0949 30.665 40.9825 30.665C40.404 30.665 39.8701 30.7098 39.5141 30.7098V34.3861H39.6031ZM41.1605 32.8169C41.6055 32.8169 41.8725 32.9514 41.8725 33.2653C41.8725 33.5342 41.6055 33.7136 41.205 33.7136C40.9825 33.7136 40.7155 33.6687 40.582 33.6687V32.8618H41.1605V32.8169ZM41.1605 31.3823C41.5165 31.3823 41.739 31.5168 41.739 31.7858C41.739 32.0548 41.472 32.2341 41.1605 32.2341H40.5375V31.4271C40.671 31.4271 40.938 31.3823 41.1605 31.3823ZM43.2519 32.5479C43.2519 33.6687 44.0528 34.4757 45.2543 34.4757C46.4557 34.4757 47.2567 33.6239 47.2567 32.5479C47.2567 31.4271 46.4557 30.6202 45.2543 30.6202C44.0528 30.5753 43.2519 31.4271 43.2519 32.5479ZM44.2753 32.5479C44.2753 31.9203 44.7203 31.472 45.2543 31.472C45.8327 31.472 46.2777 31.9203 46.2777 32.5479C46.2777 33.1756 45.8327 33.6239 45.2543 33.6239C44.6758 33.5791 44.2753 33.1308 44.2753 32.5479ZM47.8351 34.3861H48.7696V31.5616H50.2825V30.665H47.7906V34.3861H47.8351ZM50.2825 32.5479C50.2825 33.6687 51.0835 34.4757 52.2849 34.4757C53.4863 34.4757 54.2873 33.6239 54.2873 32.5479C54.2873 31.4271 53.4863 30.6202 52.2849 30.6202C51.0835 30.5753 50.2825 31.4271 50.2825 32.5479ZM51.306 32.5479C51.306 31.9203 51.7509 31.472 52.2849 31.472C52.8634 31.472 53.3083 31.9203 53.3083 32.5479C53.3083 33.1756 52.8634 33.6239 52.2849 33.6239C51.7509 33.5791 51.306 33.1308 51.306 32.5479ZM59.093 34.3861H60.0275V30.665H56.5567V34.3861H57.4911V31.5616H59.0485L59.093 34.3861ZM60.606 32.5479C60.606 33.6687 61.4069 34.4757 62.6083 34.4757C63.8098 34.4757 64.6107 33.6239 64.6107 32.5479C64.6107 31.4271 63.8098 30.6202 62.6083 30.6202C61.4069 30.5753 60.606 31.4271 60.606 32.5479ZM61.6294 32.5479C61.6294 31.9203 62.0744 31.472 62.6083 31.472C63.1868 31.472 63.6318 31.9203 63.6318 32.5479C63.6318 33.1756 63.1868 33.6239 62.6083 33.6239C62.0299 33.5791 61.6294 33.1308 61.6294 32.5479ZM68.66 30.665H67.4586L66.1237 32.5031L67.5921 34.3861H68.838L67.2361 32.4583L68.66 30.665ZM65.1892 34.3861H66.1237V30.665H65.1892V34.3861ZM68.7045 32.5479C68.7045 33.6687 69.5055 34.4757 70.7069 34.4757C71.9083 34.4757 72.7093 33.6239 72.7093 32.5479C72.7093 31.4271 71.9083 30.6202 70.7069 30.6202C69.5055 30.5753 68.7045 31.4271 68.7045 32.5479ZM69.728 32.5479C69.728 31.9203 70.1729 31.472 70.7069 31.472C71.2854 31.472 71.7304 31.9203 71.7304 32.5479C71.7304 33.1756 71.2854 33.6239 70.7069 33.6239C70.1284 33.5791 69.728 33.1308 69.728 32.5479ZM75.6016 34.3861H76.5361V30.665H73.7327L73.6883 31.8306C73.5993 33.2653 73.1543 33.5791 72.8428 33.5342L72.9318 34.4757C73.9107 34.4757 74.4002 34.0722 74.5782 32.0548L74.6227 31.6513H75.6016V34.3861ZM80.2294 33.3549C80.0069 33.5342 79.6509 33.7136 79.206 33.7136C78.6275 33.7136 78.1825 33.3998 78.0935 32.8618H80.7634C80.8079 32.7273 80.8079 32.5928 80.8079 32.3686C80.8079 31.3375 80.0069 30.665 79.0725 30.665C77.871 30.665 77.1146 31.5168 77.1146 32.5928C77.1146 33.7584 77.9155 34.5205 79.117 34.5205C79.6509 34.5205 80.1404 34.3861 80.5409 34.0722L80.2294 33.3549ZM78.9835 31.3823C79.5174 31.3823 79.8289 31.741 79.8289 32.1893H78.0045C78.138 31.6961 78.4495 31.3823 78.9835 31.3823ZM83.8337 34.3861H84.7682V30.665H83.8337V32.0548H82.2318V30.665H81.2973V34.3861H82.2318V32.9514H83.8337V34.3861ZM86.5481 34.3861L88.2835 32.0548V34.3861H89.2179V30.665H88.2835L86.5481 32.9963V30.665H85.6136V34.3861H86.5481ZM91.7988 30.665C90.4639 30.665 89.9744 31.2478 89.9744 31.9651C89.9744 32.5928 90.3749 32.9066 90.6863 33.0411L89.7074 34.3412H90.7753L91.5318 33.2204H92.0658V34.3412H93.0002V30.6202H91.7988V30.665ZM90.9533 32.0548C90.9533 31.7858 91.1758 31.472 91.6208 31.472H92.0213V32.5479H91.5318C91.2648 32.5479 90.9533 32.3686 90.9533 32.0548ZM12.682 8.11457V23.8057H8.27676V9.23537L12.682 8.11457ZM24.0289 10.67H28.3007L30.8816 19.3225H30.926L33.4624 10.67H37.7787V23.8057H34.7083L34.7973 13.9875L34.7528 13.9427L31.9495 23.8057H29.7691L26.9658 13.9427L26.9213 13.9875L27.0103 23.8057H24.0289V10.67ZM46.4557 17.7983C46.3222 17.2154 45.7882 16.1395 44.2308 16.1395C42.7179 16.1395 42.1394 17.2154 42.006 17.7983H46.4557ZM49.0366 20.7123C48.5471 21.8331 47.8796 22.6849 47.0342 23.2229C46.1887 23.8057 45.2988 24.1195 44.2308 24.1195C41.4275 24.1195 39.0691 21.8331 39.0691 18.9191C39.0691 16.1843 41.205 13.6289 44.1863 13.6289C47.1677 13.6289 49.3481 16.005 49.3481 18.9639C49.3481 19.3674 49.3481 19.5019 49.2591 19.726H41.917C42.0949 20.9365 43.0739 21.609 44.1863 21.609C45.0763 21.609 45.5658 21.2055 45.9662 20.6675L49.0366 20.7123ZM54.1093 13.9427H55.5332V16.4085H54.1093V23.7609H51.1725V16.4085H49.7485V13.9427H51.1725V10.67H54.1093V13.9427ZM56.3787 13.9427H59.1375V14.9738H59.182C59.4045 14.4807 59.9385 13.5841 61.6294 13.5841V16.543C60.2945 16.5878 59.3155 16.8568 59.3155 18.3362V23.7609H56.3787V13.9427ZM65.7232 23.8057H62.7863V13.9427H65.7232V23.8057ZM62.8308 9.68369H65.7677V12.3736H62.8308V9.68369ZM76.0021 23.8057H73.2433V22.7746H73.1988C72.6203 24.0299 71.4189 24.1195 70.6624 24.1195C70.0839 24.1195 68.66 23.9851 67.7701 22.8643C66.9691 21.878 66.8801 21.2055 66.8801 19.8157V13.9427H69.817V19.4122C69.817 20.0847 69.817 21.3848 71.3744 21.3848C72.2198 21.3848 73.0653 20.9365 73.0653 19.3674V13.9427H76.0021V23.8057Z" fill="#4B4E56"/>
</g>
</g>
<defs>
<clipPath id="clip0_709_2067">
<rect width="93" height="36" fill="white"/>
</clipPath>
</defs>
</svg>
