<svg width="48" height="48" viewBox="0 0 48 48" fill="none" xmlns="http://www.w3.org/2000/svg">
<g clip-path="url(#clip0_1802_452)">
<path d="M45.2635 31.5976V29.0167C45.2635 26.6101 43.3055 24.6522 40.899 24.6522H24.1835C23.9967 24.6522 23.8175 24.7264 23.6854 24.8586C23.5532 24.9907 23.479 25.1699 23.479 25.3567C23.479 25.5436 23.5532 25.7228 23.6854 25.8549C23.8175 25.987 23.9967 26.0613 24.1835 26.0613H40.899C42.5287 26.0613 43.8545 27.3871 43.8545 29.0168V31.5977C42.2939 31.9236 41.118 33.3099 41.118 34.9658V37.5823H18.608V34.9658C18.608 33.3098 17.432 31.9236 15.8715 31.5977V29.0168C15.8715 27.3871 17.1974 26.0613 18.827 26.0613H21.3656C21.5525 26.0613 21.7317 25.987 21.8638 25.8549C21.9959 25.7228 22.0701 25.5436 22.0701 25.3567C22.0701 25.1699 21.9959 24.9907 21.8638 24.8586C21.7317 24.7264 21.5525 24.6522 21.3656 24.6522H18.827C16.4204 24.6522 14.4625 26.6102 14.4625 29.0167V31.5976C12.902 31.9236 11.726 33.3098 11.726 34.9657V44.9995C11.7259 45.092 11.7442 45.1837 11.7796 45.2691C11.815 45.3546 11.8669 45.4323 11.9323 45.4977C11.9977 45.5632 12.0754 45.6151 12.1609 45.6505C12.2463 45.6859 12.338 45.7041 12.4305 45.7041H34.16C34.5492 45.7041 34.8646 45.3887 34.8646 44.9995C34.8646 44.6104 34.5492 44.295 34.16 44.295H18.608V38.9912H41.118V44.295H36.978C36.5888 44.295 36.2735 44.6104 36.2735 44.9995C36.2735 45.3887 36.5888 45.7041 36.978 45.7041H47.2955C47.3881 45.7041 47.4797 45.6859 47.5652 45.6505C47.6507 45.6151 47.7283 45.5632 47.7938 45.4977C47.8592 45.4323 47.9111 45.3546 47.9465 45.2691C47.9819 45.1837 48.0001 45.092 48.0001 44.9995V34.9658C48 33.3098 46.8241 31.9236 45.2635 31.5976ZM13.1349 34.9658C13.1349 33.8454 14.0465 32.9339 15.167 32.9339C16.2875 32.9339 17.199 33.8454 17.199 34.9658V44.2951H13.1349V34.9658ZM46.591 44.2951H42.527V34.9658C42.527 33.8454 43.4385 32.9339 44.559 32.9339C45.6794 32.9339 46.5909 33.8454 46.5909 34.9658V44.2951H46.591ZM17.9512 19.6248C17.9856 19.9799 18.2951 20.2605 18.6523 20.2605H41.0736C41.4568 20.2605 41.7782 19.9392 41.7782 19.556V3.00037C41.7782 2.61712 41.4569 2.29584 41.0736 2.29584H36.978C36.5888 2.29584 36.2735 2.61121 36.2735 3.00037C36.2735 3.38953 36.5888 3.7049 36.978 3.7049H39.3728L38.0686 5.00915H21.6573L20.353 3.7049H34.1599C34.549 3.7049 34.8644 3.38953 34.8644 3.00037C34.8644 2.61121 34.549 2.29584 34.1599 2.29584H18.6522C18.2687 2.29584 17.9477 2.61759 17.9477 3.00037V19.556C17.9478 19.5786 17.949 19.6022 17.9512 19.6248ZM20.353 18.8515L21.6573 17.5472H38.0685L39.3727 18.8515H20.353ZM37.6559 16.1381H31.255L30.0806 14.8337L33.8893 10.6031C34.1157 10.3514 34.5185 10.3551 34.744 10.6056L37.6559 13.8088V16.1381ZM29.359 16.1381H22.07V15.6243L25.1532 12.1996C25.3276 12.0059 25.6389 12.0058 25.8132 12.1996L29.359 16.1381ZM40.3691 4.70127V17.8551L39.0649 16.5508V6.00552L40.3691 4.70127ZM37.6559 11.7141L35.789 9.66037C35.0132 8.79871 33.6179 8.79871 32.8421 9.66037L29.1326 13.7807L26.8604 11.2568C26.6865 11.064 26.4741 10.9097 26.2369 10.8041C25.9997 10.6985 25.743 10.6438 25.4833 10.6436C24.9623 10.6436 24.4546 10.8697 24.106 11.2568L22.07 13.5184V6.41812H37.6559V11.7141ZM20.661 6.00552V16.5509L19.3567 17.8552V4.70127L20.661 6.00552Z" fill="#0B6D7A"/>
<path d="M7.93994 41.7565H7.24872V17.3741H9.05828V25.3454C9.05828 25.5323 9.13251 25.7115 9.26463 25.8436C9.39676 25.9757 9.57596 26.0499 9.76281 26.0499C9.94966 26.0499 10.1289 25.9757 10.261 25.8436C10.3931 25.7115 10.4673 25.5323 10.4673 25.3454V17.3741H12.3842C12.8295 17.3741 13.1703 16.9469 13.0711 16.5126L10.6006 5.70628C10.565 5.55074 10.4777 5.41187 10.3529 5.31241C10.2281 5.21294 10.0733 5.15878 9.91375 5.15878H3.17462C3.01506 5.15878 2.86023 5.21294 2.73546 5.31241C2.61069 5.41187 2.52338 5.55074 2.48781 5.70628L0.0173111 16.5126C-0.0819701 16.9469 0.258905 17.3741 0.704124 17.3741H5.83975V41.7564H5.14853C3.41856 41.7564 2.01119 43.1638 2.01119 44.8937V44.9995C2.01119 45.0921 2.02941 45.1837 2.06482 45.2691C2.10022 45.3546 2.15212 45.4323 2.21754 45.4977C2.28296 45.5631 2.36063 45.615 2.44611 45.6504C2.53158 45.6858 2.6232 45.7041 2.71572 45.7041H10.3727C10.4653 45.7041 10.5569 45.6858 10.6424 45.6504C10.7278 45.615 10.8055 45.5631 10.8709 45.4977C10.9363 45.4323 10.9882 45.3546 11.0237 45.2691C11.0591 45.1837 11.0773 45.0921 11.0773 44.9995V44.8937C11.0772 43.1639 9.66981 41.7565 7.93994 41.7565ZM3.73628 6.56785H9.35219L11.5006 15.9652H1.58781L3.73628 6.56785ZM3.52703 44.2951C3.77106 43.6363 4.40575 43.1655 5.14844 43.1655H7.93984C8.68253 43.1655 9.31722 43.6362 9.56125 44.2951H3.52703ZM29.1326 11.166C30.2297 11.166 31.1221 10.2735 31.1221 9.17653C31.1221 8.07947 30.2296 7.18706 29.1326 7.18706C28.0355 7.18706 27.1431 8.07956 27.1431 9.17653C27.1431 10.2735 28.0355 11.166 29.1326 11.166ZM29.1326 8.59603C29.4527 8.59603 29.7131 8.85647 29.7131 9.17653C29.7131 9.4966 29.4527 9.75703 29.1326 9.75703C28.8125 9.75703 28.5521 9.4966 28.5521 9.17653C28.5523 9.02263 28.6135 8.87508 28.7223 8.76625C28.8311 8.65742 28.9787 8.59621 29.1326 8.59603Z" fill="#0B6D7A"/>
</g>
<defs>
<clipPath id="clip0_1802_452">
<rect width="48" height="48" fill="white"/>
</clipPath>
</defs>
</svg>
