<svg width="48" height="48" viewBox="0 0 48 48" fill="none" xmlns="http://www.w3.org/2000/svg">
<g clip-path="url(#clip0_1802_2057)">
<path d="M13.761 38.9356L7.70233 36.0124C7.69099 36.0069 7.67955 36.0018 7.66802 35.9969C7.28374 35.8362 6.84537 35.9213 6.57677 36.2084C6.30837 36.4956 6.26149 36.9138 6.45443 37.2999L7.73412 39.8618C7.73421 39.8619 7.7343 39.8622 7.73449 39.8624C7.7344 39.8627 7.7343 39.8629 7.73412 39.8632L6.45443 42.425C6.26149 42.8111 6.30837 43.2293 6.57677 43.5165C6.7548 43.7069 7.00755 43.8084 7.26968 43.8084C7.4029 43.8084 7.53846 43.7822 7.66793 43.7281C7.67955 43.7232 7.69099 43.7181 7.70233 43.7126L13.7606 40.7896C14.1031 40.6247 14.3159 40.2694 14.3159 39.8624C14.3159 39.4554 14.103 39.1003 13.761 38.9356ZM8.30946 41.8583L8.99224 40.4916C9.24265 39.9901 9.24265 39.7311 8.99196 39.2328L8.30955 37.8668L12.4461 39.8626L8.30946 41.8583Z" fill="#0B6D7A"/>
<path d="M45.9898 4.89366C45.8619 4.527 45.4613 4.33331 45.0944 4.46119C44.7277 4.58906 44.534 4.98994 44.6619 5.35659C45.2177 6.95072 45.169 8.83537 44.5247 10.6631C43.9216 12.372 42.8216 13.8049 41.6569 15.3219C41.4343 15.6119 41.2043 15.9115 40.981 16.2097L39.4789 17.9498C39.3278 18.1244 39.0921 18.3326 38.8277 18.3326C38.5635 18.3326 38.3278 18.1244 38.1776 17.9509L36.6771 16.2097C36.4562 15.9151 36.2285 15.6191 36.0084 15.3326C34.9898 14.0075 34.0207 12.7463 33.3895 11.3094C33.386 11.3009 33.3822 11.2927 33.3784 11.2844C33.2897 11.081 33.2077 10.8741 33.1334 10.6628C32.2598 8.19075 32.4971 5.64187 33.7682 3.84459C34.8802 2.27222 36.6775 1.40625 38.8291 1.40625C40.6102 1.40625 42.1402 1.99003 43.2536 3.09441C43.5292 3.36788 43.9744 3.36609 44.2479 3.09037C44.5214 2.81475 44.5196 2.36953 44.2439 2.09606C42.8615 0.724781 40.9892 0 38.8291 0C36.2082 0 34.0031 1.07709 32.62 3.03281C31.9433 3.98962 31.5064 5.11341 31.3169 6.31959H13.3067C7.46575 6.31959 2.71384 11.0757 2.71384 16.9219C2.71384 22.768 7.46584 27.5241 13.3067 27.5241H31.4137C33.9701 27.5241 36.0497 29.6073 36.0497 32.1678C36.0497 34.7269 33.97 36.8089 31.4137 36.8089H17.3929C16.1985 33.7508 13.2226 31.5789 9.74912 31.5789C5.22718 31.5789 1.54834 35.2622 1.54834 39.7895C1.54834 44.3167 5.22718 48 9.74912 48C13.2226 48 16.1984 45.8281 17.3929 42.7701H31.4137C37.2532 42.7701 42.004 38.0139 42.004 32.1678C42.004 26.3216 37.2532 21.5655 31.4137 21.5655H13.3067C10.749 21.5655 8.66809 19.4823 8.66809 16.9218C8.66809 14.3613 10.749 12.2781 13.3067 12.2781H18.083C18.4713 12.2781 18.7862 11.9633 18.7862 11.5749C18.7862 11.1866 18.4713 10.8718 18.083 10.8718H13.3067C9.97356 10.8718 7.26184 13.5859 7.26184 16.9218C7.26184 20.2577 9.97356 22.9718 13.3067 22.9718H31.4137C36.4778 22.9718 40.5977 27.097 40.5977 32.1678C40.5977 37.2385 36.4778 41.3638 31.4137 41.3638H17.8006C17.8998 40.8541 17.9525 40.3279 17.9525 39.7895C17.9525 39.2511 17.8999 38.7248 17.8006 38.2151H31.4137C34.7455 38.2151 37.456 35.5023 37.456 32.1678C37.456 28.8319 34.7454 26.1178 31.4137 26.1178H13.3067C8.24115 26.1178 4.12009 21.9925 4.12009 16.9218C4.12009 11.851 8.24115 7.72575 13.3067 7.72575H31.2092C31.2092 8.75616 31.3772 9.82022 31.7194 10.8718H21.3248C20.9365 10.8718 20.6217 11.1866 20.6217 11.5749C20.6217 11.9633 20.9365 12.2781 21.3248 12.2781H32.2904C32.9874 13.7079 33.9527 14.9658 34.8934 16.1898C35.1159 16.4792 35.346 16.7784 35.5664 17.0724C35.5759 17.0852 35.5859 17.0977 35.5963 17.1097L37.1133 18.8701C37.7348 19.5882 38.3887 19.739 38.8277 19.739C39.2669 19.739 39.9208 19.5882 40.5428 18.8694L42.0615 17.1101C42.0722 17.0977 42.0824 17.085 42.0922 17.0719C42.315 16.7742 42.5475 16.4713 42.7724 16.1783C43.9527 14.6408 45.1732 13.0509 45.8509 11.1309C46.6009 9.00309 46.6502 6.78797 45.9898 4.89366ZM9.74912 46.5938C6.00259 46.5938 2.95459 43.5413 2.95459 39.7895C2.95459 36.0376 6.00259 32.9852 9.74912 32.9852C13.4972 32.9852 16.5463 36.0376 16.5463 39.7895C16.5463 43.5413 13.4971 46.5938 9.74912 46.5938Z" fill="#0B6D7A"/>
<path d="M34.4091 7.7295C34.4091 10.1687 36.3919 12.1531 38.8291 12.1531C41.2649 12.1531 43.2466 10.1687 43.2466 7.7295C43.2466 5.29031 41.2649 3.30591 38.8291 3.30591C36.3919 3.30591 34.4091 5.29031 34.4091 7.7295ZM41.8403 7.7295C41.8403 9.39328 40.4895 10.7468 38.8291 10.7468C37.1673 10.7468 35.8153 9.39328 35.8153 7.7295C35.8153 6.06572 37.1673 4.71216 38.8291 4.71216C40.4895 4.71216 41.8403 6.06572 41.8403 7.7295Z" fill="#0B6D7A"/>
</g>
<defs>
<clipPath id="clip0_1802_2057">
<rect width="48" height="48" fill="white"/>
</clipPath>
</defs>
</svg>
