<svg width="48" height="48" viewBox="0 0 48 48" fill="none" xmlns="http://www.w3.org/2000/svg">
<path d="M42.7146 18.7389V5.17837C42.7146 4.31915 42.0155 3.62015 41.1563 3.62015H39.0209C38.1617 3.62015 37.4627 4.31915 37.4627 5.17837V6.37902C34.9939 5.45052 31.4554 4.7954 27.5286 4.55362C26.798 4.50815 26.0712 4.76024 25.4938 5.25102C25.1144 5.57352 24.5699 5.75858 24 5.75858C23.4302 5.75858 22.8858 5.57362 22.5063 5.25102C21.9289 4.76015 21.2022 4.50843 20.4715 4.55362C16.5447 4.7954 13.0062 5.45052 10.5374 6.37902V5.17837C10.5374 4.31915 9.83841 3.62015 8.97919 3.62015H6.84375C5.98453 3.62015 5.28553 4.31915 5.28553 5.17837V18.7388C2.31375 19.0881 0 21.6206 0 24.6848V37.3218C0 37.5083 0.074079 37.6871 0.205941 37.819C0.337802 37.9508 0.516645 38.0249 0.703125 38.0249H2.17969V43.6766C2.17969 43.8631 2.25377 44.0419 2.38563 44.1738C2.51749 44.3057 2.69633 44.3797 2.88281 44.3797H6.72853C6.91501 44.3797 7.09385 44.3057 7.22572 44.1738C7.35758 44.0419 7.43166 43.8631 7.43166 43.6766V38.0249H40.5683V43.6766C40.5683 43.8631 40.6424 44.0419 40.7743 44.1738C40.9061 44.3057 41.085 44.3797 41.2715 44.3797H45.1172C45.3037 44.3797 45.4825 44.3057 45.6144 44.1738C45.7462 44.0419 45.8203 43.8631 45.8203 43.6766V38.0249H47.2969C47.4834 38.0249 47.6622 37.9508 47.7941 37.819C47.9259 37.6871 48 37.5083 48 37.3218V24.6848C48 21.6206 45.6863 19.0882 42.7146 18.7389ZM39.0209 5.02649H41.1563C41.2402 5.02649 41.3083 5.09465 41.3083 5.17846V18.6963H39.6778C39.7247 18.5901 39.7653 18.4813 39.7992 18.3703C40.3639 16.527 40.1396 14.9923 39.852 14.0294C39.6817 13.4575 39.3382 12.9526 38.8689 12.5841V5.17837C38.8689 5.09455 38.9372 5.02649 39.0209 5.02649ZM37.815 13.5649C38.1503 13.758 38.3951 14.0659 38.5045 14.432C38.7367 15.209 38.9164 16.4514 38.4547 17.9585C38.3475 18.3088 38.1178 18.6089 37.8077 18.804C37.6488 18.9044 37.4724 18.9739 37.2877 19.0086C35.9924 19.2505 34.2832 19.3836 32.4752 19.3836C30.6671 19.3836 28.958 19.2505 27.6627 19.0086C27.478 18.9738 27.3016 18.9043 27.1427 18.8039L27.1398 18.8024C27.1317 18.7974 27.1242 18.7915 27.116 18.7868C26.8191 18.5913 26.5998 18.2984 26.4957 17.9585C26.034 16.4513 26.2138 15.2089 26.4458 14.432C26.6064 13.8942 27.0539 13.4939 27.6135 13.3873C28.9147 13.1394 30.6413 13.0029 32.4752 13.0029C34.3092 13.0029 36.0357 13.1394 37.3369 13.3873C37.5051 13.4194 37.6659 13.4791 37.815 13.5649ZM10.5374 7.89177C12.8655 6.90852 16.4783 6.2084 20.558 5.95715C20.9242 5.93408 21.294 6.06618 21.5955 6.3224C22.2345 6.86559 23.0885 7.16474 23.9999 7.16474C24.9115 7.16474 25.7654 6.86559 26.4044 6.3224C26.7059 6.06618 27.0757 5.93427 27.4419 5.95715C31.5216 6.2084 35.1344 6.90843 37.4625 7.89168V11.9802C36.0954 11.7325 34.3318 11.5966 32.4751 11.5966C30.5556 11.5966 28.7355 11.7419 27.3503 12.0057C26.2728 12.2109 25.4099 12.9863 25.0983 14.0293C24.8107 14.9922 24.5863 16.5269 25.1511 18.3702C25.185 18.4812 25.2256 18.59 25.2725 18.6962H22.7274C22.7743 18.59 22.8149 18.4812 22.8488 18.3702C23.4135 16.5268 23.1892 14.9921 22.9016 14.0293C22.5901 12.9863 21.7272 12.2109 20.6497 12.0057C19.2644 11.7419 17.4444 11.5966 15.5248 11.5966C13.668 11.5966 11.9045 11.7325 10.5374 11.9802V7.89177ZM9.49566 14.4319C9.60506 14.0659 9.84984 13.7579 10.1851 13.5648C10.3334 13.4792 10.495 13.4192 10.6632 13.3872C11.9644 13.1393 13.691 13.0028 15.5249 13.0028C17.3588 13.0028 19.0854 13.1393 20.3867 13.3872C20.9462 13.4938 21.3937 13.894 21.5543 14.4319C21.7864 15.2088 21.9661 16.4512 21.5044 17.9584C21.3972 18.3087 21.1676 18.6088 20.8575 18.8039C20.6986 18.9043 20.5221 18.9738 20.3374 19.0086C19.0421 19.2505 17.333 19.3836 15.5249 19.3836C13.7168 19.3836 12.0077 19.2505 10.7124 19.0086C10.5277 18.9738 10.3513 18.9043 10.1924 18.8039C9.8823 18.6088 9.65263 18.3087 9.54553 17.9584C9.08381 16.4512 9.26353 15.2089 9.49566 14.4319ZM6.69178 5.17837C6.69178 5.09455 6.76003 5.0264 6.84375 5.0264H8.97919C9.063 5.0264 9.13116 5.09455 9.13116 5.17837V12.5841C8.66183 12.9525 8.31836 13.4575 8.14809 14.0294C7.86047 14.9923 7.63612 16.527 8.20087 18.3703C8.235 18.4817 8.27559 18.5906 8.32228 18.6963H6.69178V5.17837ZM6.0255 42.9734H3.58603V38.0249H6.0255V42.9734ZM44.4141 42.9734H41.9746V38.0249H44.4141V42.9734ZM46.5938 36.6186H1.40625V31.5208H46.5938V36.6186ZM46.5938 30.1146H1.40625V25.388H8.00409C8.19057 25.388 8.36942 25.3139 8.50128 25.182C8.63314 25.0502 8.70722 24.8713 8.70722 24.6848C8.70722 24.4984 8.63314 24.3195 8.50128 24.1877C8.36942 24.0558 8.19057 23.9817 8.00409 23.9817H1.46016C1.79944 21.7875 3.70097 20.1024 5.98866 20.1024H9.63047C9.88883 20.2399 10.1666 20.3372 10.4543 20.3909C11.8322 20.6481 13.6329 20.7898 15.5249 20.7898C17.4169 20.7898 19.2176 20.6481 20.5955 20.3909C20.8832 20.3372 21.161 20.2399 21.4193 20.1024H26.5808C26.8392 20.2399 27.117 20.3372 27.4047 20.3909C28.7826 20.6481 30.5833 20.7898 32.4753 20.7898C34.3673 20.7898 36.168 20.6481 37.5459 20.3909C37.8336 20.3372 38.1114 20.2399 38.3697 20.1024H42.0115C44.2991 20.1024 46.2007 21.7876 46.54 23.9817H10.8166C10.6301 23.9817 10.4513 24.0558 10.3194 24.1877C10.1875 24.3195 10.1135 24.4984 10.1135 24.6848C10.1135 24.8713 10.1875 25.0502 10.3194 25.182C10.4513 25.3139 10.6301 25.388 10.8166 25.388H46.5938V30.1146Z" fill="#0B6D7A"/>
</svg>
