<svg width="48" height="48" viewBox="0 0 48 48" fill="none" xmlns="http://www.w3.org/2000/svg">
<g clip-path="url(#clip0_1802_2038)">
<path d="M47.5568 22.338C46.9269 18.9759 45.5092 16.069 43.457 13.9314C42.5345 12.9707 41.4465 12.0808 40.223 11.2865C38.8231 10.3777 37.2066 9.5589 35.1357 8.70951C34.2284 8.33734 33.3203 7.99392 32.4741 7.67834C31.1021 7.16674 29.6571 6.65158 28.1786 6.14757C27.6701 5.97413 27.1553 5.80968 26.6575 5.65067C25.8606 5.39609 25.0365 5.13279 24.2427 4.83352C23.7533 4.64893 23.5469 4.50894 23.4631 4.43454C23.4674 4.42929 23.4721 4.42377 23.4772 4.41796C23.8565 3.98553 26.0636 2.25302 27.3659 1.26242C27.6059 1.0798 27.7027 0.764405 27.6063 0.47862C27.5099 0.192835 27.2419 0.0003748 26.9404 0.0003748L12.5057 0C12.3819 0 12.2603 0.0327013 12.1532 0.0948244C10.5339 1.03379 9.19011 2.51135 8.46646 4.14848C7.62822 6.04496 7.62167 8.03 8.44754 9.88882C9.5785 12.4344 11.9676 13.8464 14.0754 15.0923C14.6255 15.4173 15.1449 15.7244 15.636 16.0449C15.926 16.2342 16.2238 16.42 16.5118 16.5998C17.5936 17.2752 18.6154 17.9131 19.4322 18.8115C20.2737 19.737 20.5278 20.9198 20.167 22.2322C19.3285 25.2816 16.8365 28.0211 14.6378 30.4381C14.231 30.8853 13.8468 31.3077 13.4751 31.7289C12.4344 32.9083 10.9084 34.6233 9.2929 36.4389C3.96427 42.4277 0.44621 46.3926 0.110295 46.9189C-0.0278185 47.1352 -0.0369074 47.4097 0.0864955 47.6348C0.209805 47.8598 0.446116 47.9997 0.702761 47.9997L42.5226 48H42.5227C42.8273 48 43.0972 47.8038 43.1912 47.514C44.2837 44.1445 45.2725 40.7458 46.4972 36.1498C47.9581 30.6669 48.2949 26.2781 47.5568 22.338ZM45.1391 35.788C43.98 40.1375 43.0342 43.4063 42.0109 46.5945L39.4866 46.5943C39.6073 46.2244 39.7277 45.8538 39.8484 45.4847C40.9334 42.1668 41.992 38.839 42.894 35.4693C43.0378 34.9315 43.1865 34.3755 43.3316 33.816C43.429 33.4403 43.2034 33.0567 42.8277 32.9594C42.452 32.8621 42.0685 33.0876 41.9711 33.4633C41.8274 34.0174 41.6794 34.5708 41.5362 35.1059C40.6518 38.4112 39.5875 41.761 38.5125 45.0479C38.3441 45.5626 38.1757 46.0778 38.0076 46.5943H23.205C23.1645 46.4202 23.0582 46.2614 22.895 46.1587C22.5666 45.952 22.1326 46.0508 21.9259 46.3792C21.8795 46.4528 21.8347 46.5237 21.7901 46.5943H7.15101C9.44413 43.7317 15.7618 36.0931 18.7921 32.6589C20.4075 30.8282 21.7313 29.0302 22.727 27.3149C24.3759 24.474 25.0289 21.996 24.668 19.95C23.8929 15.5546 20.4396 13.7879 17.3929 12.2293C17.0707 12.0644 16.7375 11.8939 16.4178 11.7256L16.3607 11.6955C16.0175 11.5144 15.5924 11.6459 15.4112 11.9891C15.2301 12.3323 15.3616 12.7574 15.7048 12.9386L15.7625 12.969C16.0901 13.1414 16.4269 13.3138 16.7527 13.4804C19.7752 15.0267 22.6302 16.4873 23.2839 20.194C23.5856 21.9046 22.9892 24.063 21.5114 26.6093C20.5754 28.2219 19.2706 29.9923 17.7383 31.7289C14.432 35.4758 6.85988 44.6443 5.36462 46.5942H2.19287C3.86842 44.6497 7.50979 40.5573 10.343 37.3731C11.9595 35.5564 13.4863 33.8404 14.529 32.6588C14.8937 32.2456 15.2745 31.8269 15.6776 31.3838C17.9824 28.8501 20.5946 25.9784 21.5222 22.6048C22.0101 20.8302 21.6371 19.1472 20.4721 17.8659C18.9332 16.1735 16.7369 15.0327 14.7906 13.8823C12.7699 12.688 10.6805 11.453 9.73198 9.31819C8.32432 6.14972 10.1411 2.97301 12.6992 1.4055H13.9771C12.051 2.81793 10.9255 4.24508 10.5577 5.73397C10.2594 6.94102 10.4815 8.14731 11.2178 9.31941C11.6229 9.96434 12.1458 10.548 12.8161 11.1036C13.1148 11.3513 13.5578 11.3099 13.8057 11.0111C14.0533 10.7123 14.0119 10.2692 13.7131 10.0215C13.1594 9.56256 12.7325 9.08834 12.408 8.57177C11.875 7.72323 11.7161 6.90522 11.9221 6.07111C12.295 4.56225 13.8493 2.99297 16.5428 1.4055H21.2948C20.0481 2.38738 18.6614 3.72692 19.0371 5.37398C19.41 7.0082 21.3025 7.92065 22.7081 8.51031C24.5407 9.27911 26.4407 9.88957 28.2781 10.48C31.2848 11.446 34.3938 12.445 37.1799 14.1471C40.3595 16.0896 42.3819 18.9406 43.0287 22.3917C43.4482 24.6307 43.3497 27.1361 42.7184 30.2767L42.7084 30.327C42.6321 30.7076 42.8787 31.0779 43.2593 31.1541C43.306 31.1635 43.3524 31.1679 43.3981 31.1679C43.7262 31.1679 44.0195 30.937 44.0864 30.6031L44.0964 30.5532C44.7643 27.2304 44.8639 24.5548 44.4102 22.1327C43.688 18.2795 41.4412 15.1033 37.9126 12.9477C34.9834 11.1581 31.7932 10.133 28.7081 9.14175C26.899 8.56053 25.0284 7.95944 23.252 7.21415C22.7097 6.98656 22.2482 6.7539 21.8411 6.50297C21.3291 6.18739 20.5555 5.71055 20.4073 5.06111C20.1657 4.00146 21.75 2.8125 22.7985 2.0257C23.0999 1.79951 23.3707 1.59609 23.5925 1.40569C23.5925 1.40569 24.8845 1.40569 24.8843 1.40588C23.9574 2.13542 21.6839 3.25486 22.057 4.74656C22.2442 5.49485 23.0585 5.88886 23.7469 6.1485C25.0569 6.64249 26.4008 7.02619 27.725 7.47773C29.1909 7.97762 30.6234 8.4881 31.9829 8.9952C32.8181 9.30676 33.7136 9.64529 34.6025 10.0099C36.5903 10.8252 38.133 11.6054 39.4577 12.4654C40.5909 13.2011 41.5952 14.0218 42.443 14.9049C44.3053 16.8445 45.5959 19.5044 46.1752 22.5968C46.8734 26.3233 46.5441 30.5149 45.1391 35.788Z" fill="#0B6D7A"/>
<path d="M32.2344 18.6845C32.3713 18.8787 32.5886 18.9825 32.8095 18.9825C32.9493 18.9825 33.0906 18.9409 33.2137 18.8541C33.5309 18.6305 33.6068 18.1921 33.3833 17.8748C32.9983 17.3285 32.5577 16.8167 32.0741 16.3538C31.7936 16.0853 31.3487 16.0952 31.0805 16.3755C30.8121 16.656 30.8218 17.1008 31.1022 17.3691C31.5206 17.7696 31.9016 18.2121 32.2344 18.6845Z" fill="#0B6D7A"/>
<path d="M23.8686 11.4799L23.8243 11.4569C23.2831 11.1764 22.7426 10.8963 22.2001 10.6187C21.8549 10.4423 21.4312 10.5788 21.2544 10.9244C21.0777 11.27 21.2145 11.6933 21.5601 11.8701C22.1003 12.1464 22.6386 12.4255 23.1776 12.7048L23.2219 12.7277C23.3254 12.7813 23.4359 12.8067 23.5447 12.8067C23.7988 12.8067 24.0442 12.6684 24.1692 12.4272C24.3478 12.0826 24.2133 11.6585 23.8686 11.4799Z" fill="#0B6D7A"/>
<path d="M16.8037 5.39565C16.9671 4.87936 17.2459 4.44029 17.5686 4.19104C17.8757 3.9538 17.9323 3.51247 17.6952 3.20532C17.4577 2.89808 17.0164 2.84158 16.7094 3.07873C16.1576 3.50497 15.7152 4.17727 15.4638 4.97157C15.3467 5.34159 15.5517 5.73653 15.9217 5.85366C15.9923 5.87596 16.0637 5.88664 16.1339 5.88664C16.4321 5.88655 16.7089 5.69521 16.8037 5.39565Z" fill="#0B6D7A"/>
<path d="M18.8138 8.98616C18.1812 8.67564 17.7434 8.39885 17.3941 8.08889C17.1038 7.83121 16.6596 7.85782 16.402 8.14801C16.1443 8.43829 16.1708 8.88243 16.4611 9.14011C16.9089 9.53758 17.4434 9.87921 18.1945 10.2478C18.2941 10.2967 18.3997 10.3199 18.5037 10.3199C18.7632 10.3199 19.0129 10.1754 19.135 9.92672C19.306 9.57834 19.1622 9.15725 18.8138 8.98616Z" fill="#0B6D7A"/>
<path d="M25.815 41.3475C25.4821 41.1483 25.0505 41.2564 24.8511 41.5896C24.5238 42.1363 24.2 42.6742 23.8855 43.1939C23.6845 43.5259 23.7907 43.958 24.1228 44.1589C24.2367 44.2278 24.3621 44.2606 24.4861 44.2606C24.7238 44.2606 24.9559 44.1399 25.0879 43.9216C25.4035 43.4001 25.7286 42.8602 26.0571 42.3115C26.2564 41.9785 26.1481 41.5469 25.815 41.3475Z" fill="#0B6D7A"/>
<path d="M34.1551 21.0031C33.7741 21.0768 33.5248 21.4454 33.5986 21.8265C33.6838 22.2681 33.7271 22.7136 33.7271 23.1506C33.7271 23.1842 33.7268 23.2177 33.7263 23.2528C33.7249 23.3442 33.7221 23.4352 33.7181 23.5259C33.7006 23.9136 34.0009 24.242 34.3885 24.2595C34.3993 24.2599 34.41 24.2602 34.4207 24.2602C34.7942 24.2602 35.1053 23.966 35.1221 23.589C35.1269 23.4844 35.13 23.3792 35.1316 23.2751C35.1323 23.2336 35.1326 23.192 35.1326 23.1505C35.1326 22.6242 35.0807 22.0889 34.9785 21.5597C34.9047 21.1786 34.5355 20.9296 34.1551 21.0031Z" fill="#0B6D7A"/>
<path d="M28.6634 36.4944C28.3278 36.3002 27.8977 36.4145 27.7031 36.7503C27.4002 37.2733 27.0841 37.8157 26.7603 38.3677C26.5639 38.7024 26.6762 39.133 27.011 39.3294C27.1227 39.3949 27.2451 39.426 27.3658 39.426C27.607 39.426 27.8418 39.3017 27.9727 39.0786C28.2978 38.5244 28.6151 37.9797 28.9194 37.4546C29.1139 37.1189 28.9992 36.689 28.6634 36.4944Z" fill="#0B6D7A"/>
<path d="M33.8802 26.5466C33.5163 26.4111 33.1117 26.5962 32.9763 26.9601C32.7804 27.4866 32.5461 28.0286 32.2599 28.6173C32.0902 28.9663 32.2356 29.3868 32.5847 29.5565C32.6837 29.6047 32.7884 29.6273 32.8914 29.6273C33.1519 29.6273 33.4024 29.4818 33.5239 29.2316C33.8299 28.6022 34.0816 28.0195 34.2936 27.4503C34.429 27.0866 34.2439 26.682 33.8802 26.5466Z" fill="#0B6D7A"/>
<path d="M31.4431 31.6027C31.1072 31.4083 30.6773 31.5229 30.4828 31.8588C30.1915 32.3622 29.8612 32.9326 29.5481 33.5002C29.3607 33.84 29.4842 34.2675 29.8241 34.455C29.9316 34.5143 30.0481 34.5425 30.1628 34.5425C30.4106 34.5425 30.6507 34.4112 30.7788 34.179C31.0848 33.6243 31.4112 33.0604 31.6991 32.563C31.8937 32.2271 31.7789 31.7973 31.4431 31.6027Z" fill="#0B6D7A"/>
<path d="M28.8271 14.1864C28.5256 14.0141 28.2205 13.8338 27.9256 13.6594C27.6885 13.5192 27.4516 13.3792 27.2135 13.2414C26.8775 13.047 26.4476 13.1616 26.2533 13.4975C26.0587 13.8333 26.1733 14.2633 26.5092 14.4578C26.7436 14.5935 26.9768 14.7313 27.2103 14.8694C27.5096 15.0463 27.8192 15.2293 28.1298 15.4068C28.2398 15.4696 28.3595 15.4995 28.4778 15.4995C28.7218 15.4995 28.9589 15.3722 29.0886 15.1452C29.2813 14.8082 29.1641 14.3789 28.8271 14.1864Z" fill="#0B6D7A"/>
</g>
<defs>
<clipPath id="clip0_1802_2038">
<rect width="48" height="48" fill="white"/>
</clipPath>
</defs>
</svg>
