<svg width="48" height="48" viewBox="0 0 48 48" fill="none" xmlns="http://www.w3.org/2000/svg">
<g clip-path="url(#clip0_1802_2030)">
<path d="M35.4574 15.5517L35.7186 13.342L25.0606 24L35.7187 34.6581L35.4575 32.4483C35.4088 32.0369 35.7029 31.6641 36.1143 31.6154C36.5255 31.5672 36.8985 31.8608 36.9472 32.2722L37.4622 36.6292C37.4892 36.8573 37.4101 37.0852 37.2477 37.2476C37.1063 37.3891 36.9151 37.4673 36.7175 37.4673C36.6882 37.4673 36.6589 37.4656 36.6294 37.4621L32.2723 36.9472C31.8609 36.8985 31.5669 36.5257 31.6155 36.1143C31.6641 35.7029 32.0364 35.4088 32.4484 35.4575L34.6581 35.7187L24 25.0606L13.3419 35.7187L15.5517 35.4575C15.9628 35.4092 16.3359 35.7029 16.3846 36.1143C16.4333 36.5257 16.1392 36.8985 15.7278 36.9472L11.3708 37.4622C11.3414 37.4657 11.312 37.4674 11.2827 37.4674C11.085 37.4674 10.8939 37.3892 10.7525 37.2477C10.5901 37.0853 10.511 36.8574 10.538 36.6293L11.0529 32.2723C11.1016 31.8609 11.4736 31.5667 11.8858 31.6155C12.2972 31.6642 12.5912 32.037 12.5426 32.4484L12.2814 34.6581L22.9393 24L12.2813 13.342L12.5425 15.5518C12.5912 15.9632 12.2971 16.336 11.8857 16.3847C11.8559 16.3883 11.8261 16.3899 11.7968 16.3899C11.4218 16.3899 11.0979 16.1094 11.0528 15.7279L10.5378 11.3708C10.5108 11.1427 10.5899 10.9149 10.7523 10.7525C10.9147 10.5902 11.1426 10.5112 11.3707 10.538L15.7278 11.0529C16.1392 11.1016 16.4332 11.4744 16.3846 11.8858C16.3359 12.2971 15.9633 12.591 15.5517 12.5426L13.342 12.2814L24 22.9393L34.658 12.2813L32.4483 12.5425C32.0371 12.5914 31.6641 12.2971 31.6154 11.8857C31.5667 11.4743 31.8608 11.1015 32.2722 11.0528L36.6292 10.5378C36.8573 10.5105 37.0852 10.5898 37.2476 10.7523C37.41 10.9147 37.4891 11.1426 37.4621 11.3707L36.9472 15.7277C36.9021 16.1092 36.5781 16.3898 36.2033 16.3898C36.1739 16.3898 36.1442 16.3881 36.1143 16.3845C35.7029 16.3359 35.4088 15.9631 35.4574 15.5517ZM7.82456 0.75V7.07456C7.82456 7.48875 7.48875 7.82456 7.07456 7.82456H0.75C0.335812 7.82456 0 7.48875 0 7.07456V0.75C0 0.335812 0.335812 0 0.75 0H7.07456C7.48884 0 7.82456 0.335812 7.82456 0.75ZM6.32456 1.5H1.5V6.32456H6.32456V1.5ZM7.82456 40.9254V47.25C7.82456 47.6642 7.48875 48 7.07456 48H0.75C0.335812 48 0 47.6642 0 47.25V40.9254C0 40.5112 0.335812 40.1754 0.75 40.1754H7.07456C7.48884 40.1754 7.82456 40.5112 7.82456 40.9254ZM6.32456 41.6754H1.5V46.5H6.32456V41.6754ZM48 0.75V7.07456C48 7.48875 47.6642 7.82456 47.25 7.82456H40.9254C40.5112 7.82456 40.1754 7.48875 40.1754 7.07456V0.75C40.1754 0.335812 40.5112 0 40.9254 0H47.25C47.6642 0 48 0.335812 48 0.75ZM46.5 1.5H41.6754V6.32456H46.5V1.5ZM48 40.9254V47.25C48 47.6642 47.6642 48 47.25 48H40.9254C40.5112 48 40.1754 47.6642 40.1754 47.25V40.9254C40.1754 40.5112 40.5112 40.1754 40.9254 40.1754H47.25C47.6642 40.1754 48 40.5112 48 40.9254ZM46.5 41.6754H41.6754V46.5H46.5V41.6754ZM10.0811 4.66228H13.2434C13.6576 4.66228 13.9934 4.32647 13.9934 3.91228C13.9934 3.49809 13.6576 3.16228 13.2434 3.16228H10.0811C9.66694 3.16228 9.33113 3.49809 9.33113 3.91228C9.33113 4.32647 9.66694 4.66228 10.0811 4.66228ZM16.25 4.66228H19.4123C19.8264 4.66228 20.1623 4.32647 20.1623 3.91228C20.1623 3.49809 19.8264 3.16228 19.4123 3.16228H16.25C15.8358 3.16228 15.5 3.49809 15.5 3.91228C15.5 4.32647 15.8358 4.66228 16.25 4.66228ZM22.4188 4.66228H25.5811C25.9953 4.66228 26.3311 4.32647 26.3311 3.91228C26.3311 3.49809 25.9953 3.16228 25.5811 3.16228H22.4188C22.0046 3.16228 21.6688 3.49809 21.6688 3.91228C21.6688 4.32647 22.0046 4.66228 22.4188 4.66228ZM28.5877 4.66228H31.75C32.1642 4.66228 32.5 4.32647 32.5 3.91228C32.5 3.49809 32.1642 3.16228 31.75 3.16228H28.5877C28.1736 3.16228 27.8377 3.49809 27.8377 3.91228C27.8377 4.32647 28.1735 4.66228 28.5877 4.66228ZM37.9189 3.16228H34.7566C34.3424 3.16228 34.0066 3.49809 34.0066 3.91228C34.0066 4.32647 34.3424 4.66228 34.7566 4.66228H37.9189C38.3331 4.66228 38.6689 4.32647 38.6689 3.91228C38.6689 3.49809 38.3331 3.16228 37.9189 3.16228ZM13.2435 43.3377H10.0812C9.66703 43.3377 9.33122 43.6735 9.33122 44.0877C9.33122 44.5019 9.66703 44.8377 10.0812 44.8377H13.2435C13.6577 44.8377 13.9935 44.5019 13.9935 44.0877C13.9935 43.6735 13.6577 43.3377 13.2435 43.3377ZM19.4123 43.3377H16.25C15.8358 43.3377 15.5 43.6735 15.5 44.0877C15.5 44.5019 15.8358 44.8377 16.25 44.8377H19.4123C19.8264 44.8377 20.1623 44.5019 20.1623 44.0877C20.1623 43.6735 19.8265 43.3377 19.4123 43.3377ZM25.5812 43.3377H22.4189C22.0047 43.3377 21.6689 43.6735 21.6689 44.0877C21.6689 44.5019 22.0047 44.8377 22.4189 44.8377H25.5812C25.9954 44.8377 26.3312 44.5019 26.3312 44.0877C26.3312 43.6735 25.9954 43.3377 25.5812 43.3377ZM31.75 43.3377H28.5877C28.1736 43.3377 27.8377 43.6735 27.8377 44.0877C27.8377 44.5019 28.1736 44.8377 28.5877 44.8377H31.75C32.1642 44.8377 32.5 44.5019 32.5 44.0877C32.5 43.6735 32.1642 43.3377 31.75 43.3377ZM37.9189 43.3377H34.7566C34.3424 43.3377 34.0066 43.6735 34.0066 44.0877C34.0066 44.5019 34.3424 44.8377 34.7566 44.8377H37.9189C38.3331 44.8377 38.6689 44.5019 38.6689 44.0877C38.6689 43.6735 38.3331 43.3377 37.9189 43.3377ZM44.0877 13.9935C44.5019 13.9935 44.8377 13.6577 44.8377 13.2435V10.0812C44.8377 9.66703 44.5019 9.33122 44.0877 9.33122C43.6735 9.33122 43.3377 9.66703 43.3377 10.0812V13.2435C43.3377 13.6577 43.6735 13.9935 44.0877 13.9935ZM43.3377 19.4123C43.3377 19.8264 43.6735 20.1623 44.0877 20.1623C44.5019 20.1623 44.8377 19.8264 44.8377 19.4123V16.25C44.8377 15.8358 44.5019 15.5 44.0877 15.5C43.6735 15.5 43.3377 15.8358 43.3377 16.25V19.4123ZM43.3377 25.5812C43.3377 25.9954 43.6735 26.3312 44.0877 26.3312C44.5019 26.3312 44.8377 25.9954 44.8377 25.5812V22.4189C44.8377 22.0047 44.5019 21.6689 44.0877 21.6689C43.6735 21.6689 43.3377 22.0047 43.3377 22.4189V25.5812ZM43.3377 31.75C43.3377 32.1642 43.6735 32.5 44.0877 32.5C44.5019 32.5 44.8377 32.1642 44.8377 31.75V28.5877C44.8377 28.1736 44.5019 27.8377 44.0877 27.8377C43.6735 27.8377 43.3377 28.1736 43.3377 28.5877V31.75ZM43.3377 37.9189C43.3377 38.3331 43.6735 38.6689 44.0877 38.6689C44.5019 38.6689 44.8377 38.3331 44.8377 37.9189V34.7566C44.8377 34.3424 44.5019 34.0066 44.0877 34.0066C43.6735 34.0066 43.3377 34.3424 43.3377 34.7566V37.9189ZM3.91228 13.9935C4.32647 13.9935 4.66228 13.6577 4.66228 13.2435V10.0812C4.66228 9.66703 4.32647 9.33122 3.91228 9.33122C3.49809 9.33122 3.16228 9.66703 3.16228 10.0812V13.2435C3.16228 13.6577 3.49809 13.9935 3.91228 13.9935ZM3.16228 19.4123C3.16228 19.8264 3.49809 20.1623 3.91228 20.1623C4.32647 20.1623 4.66228 19.8264 4.66228 19.4123V16.25C4.66228 15.8358 4.32647 15.5 3.91228 15.5C3.49809 15.5 3.16228 15.8358 3.16228 16.25V19.4123ZM3.16228 25.5812C3.16228 25.9954 3.49809 26.3312 3.91228 26.3312C4.32647 26.3312 4.66228 25.9954 4.66228 25.5812V22.4189C4.66228 22.0047 4.32647 21.6689 3.91228 21.6689C3.49809 21.6689 3.16228 22.0047 3.16228 22.4189V25.5812ZM3.16228 31.75C3.16228 32.1642 3.49809 32.5 3.91228 32.5C4.32647 32.5 4.66228 32.1642 4.66228 31.75V28.5877C4.66228 28.1736 4.32647 27.8377 3.91228 27.8377C3.49809 27.8377 3.16228 28.1736 3.16228 28.5877V31.75ZM3.16228 37.9189C3.16228 38.3331 3.49809 38.6689 3.91228 38.6689C4.32647 38.6689 4.66228 38.3331 4.66228 37.9189V34.7566C4.66228 34.3424 4.32647 34.0066 3.91228 34.0066C3.49809 34.0066 3.16228 34.3424 3.16228 34.7566V37.9189Z" fill="#0B6D7A"/>
</g>
<defs>
<clipPath id="clip0_1802_2030">
<rect width="48" height="48" fill="white"/>
</clipPath>
</defs>
</svg>
